<?xml version="1.0" encoding="UTF-8"?>
<svg width="30px" height="30px" viewBox="0 0 30 30" version="1.1" xmlns="http://www.w3.org/2000/svg" xmlns:xlink="http://www.w3.org/1999/xlink">
    <!-- Generator: Sketch 63.1 (92452) - https://sketch.com -->
    <title>icon_phonenum</title>
    <desc>Created with Sketch.</desc>
    <g id="页面-1" stroke="none" stroke-width="1" fill="none" fill-rule="evenodd">
        <g id="0登陆页" transform="translate(-811.000000, -402.000000)" fill="#34332F" fill-rule="nonzero">
            <g id="编组-3" transform="translate(778.000000, 364.000000)">
                <g id="编组" transform="translate(24.000000, 31.000000)">
                    <g id="icon_phonenum" transform="translate(9.000000, 7.000000)">
                        <g id="分组">
                            <path d="M24.2555815,21.12 L19.616128,19.227 C19.616128,19.227 18.7314229,18.868 18.3875375,18.514 C18.1666112,18.286 18.1826058,17.75 18.3775408,17.066 C18.5724759,16.382 20.9506831,13.598 20.9506831,11.07 C20.9506831,7.165 18.4985005,4 15.4735088,4 C12.4485172,4 9.99633455,7.165 9.99633455,11.07 C9.99633455,13.491 12.1156281,16.379 12.3775408,16.903 C12.6394535,17.427 12.5754748,18.227 12.3685438,18.469 C12.0576475,18.833 10.925025,19.198 10.925025,19.198 L6.74241919,21.149 C5.76474508,21.516 5,22.481 5,23.569 L5,24.085 C5,25.273 5.92169278,26 7.05431523,26 L23.9446851,26 C25.0783072,26 26,25.273 26,24.085 L26,23.569 C25.9990003,22.482 25.2322559,21.487 24.2555815,21.12 Z" id="路径"></path>
                        </g>
                    </g>
                </g>
            </g>
        </g>
    </g>
</svg>